# xmcd CD database file
# Copyright (C) 1993-1998 Ti Kan
# 
# Track frame offsets:
#     150
#     15682
#     27667
#     41637
#     51945
#     67760
#     83762
#     102077
#     118052
#     133560
#     145170
# 
# Disc length: 2187 seconds
# 
# Revision: 1
# Processed by: cddbd v1.4b41PL1 Copyright (c) Steve Scherf et al.
# Submitted via: DiscPlay 4.0.4
# 
DISCID=9108890b
DTITLE=Herb Eimerman - Story In Your Eyes
DYEAR=1900
DGENRE=
TTITLE0=About Last Night
TTITLE1=Face To Face
TTITLE2=It Rained All Night
TTITLE3=Lightnin' In The Sky
TTITLE4=Think Of You
TTITLE5=Wild About My Baby
TTITLE6=Sky Is Burning
TTITLE7=Yes It Can
TTITLE8=Forgive Me
TTITLE9=A Touch Of Class
TTITLE10=Shadow On The Wall
EXTD=
EXTT0=
EXTT1=
EXTT2=
EXTT3=
EXTT4=
EXTT5=
EXTT6=
EXTT7=
EXTT8=
EXTT9=
EXTT10=
PLAYORDER=
